<?xml version="1.0" encoding="UTF-8" standalone="no"?>
<svg
   xmlns:dc="http://purl.org/dc/elements/1.1/"
   xmlns:cc="http://creativecommons.org/ns#"
   xmlns:rdf="http://www.w3.org/1999/02/22-rdf-syntax-ns#"
   xmlns:svg="http://www.w3.org/2000/svg"
   xmlns="http://www.w3.org/2000/svg"
   xmlns:xlink="http://www.w3.org/1999/xlink"
   viewBox="0 0 30 30"
   height="30"
   width="30"
   version="1.1"
   id="svg4238">
  <metadata
     id="metadata4244">
    <rdf:RDF>
      <cc:Work
         rdf:about="">
        <dc:format>image/svg+xml</dc:format>
        <dc:type
           rdf:resource="http://purl.org/dc/dcmitype/StillImage" />
        <dc:title></dc:title>
      </cc:Work>
    </rdf:RDF>
  </metadata>
  <defs
     id="defs4242">
    <linearGradient
       id="linearGradient4460">
      <stop
         id="stop4462"
         offset="0"
         style="stop-color:#ffe1e1;stop-opacity:1;" />
      <stop
         id="stop4464"
         offset="1"
         style="stop-color:#ffe1e1;stop-opacity:0;" />
    </linearGradient>
    <linearGradient
       id="linearGradient4420">
      <stop
         style="stop-color:#000000;stop-opacity:1"
         offset="0"
         id="stop4422" />
      <stop
         style="stop-color:#1e1e1e;stop-opacity:0;"
         offset="1"
         id="stop4424" />
    </linearGradient>
    <linearGradient
       id="linearGradient4297">
      <stop
         id="stop4299"
         offset="0"
         style="stop-color:#1e1e1e;stop-opacity:1;" />
      <stop
         id="stop4301"
         offset="1"
         style="stop-color:#1e1e1e;stop-opacity:0;" />
    </linearGradient>
    <linearGradient
       gradientTransform="matrix(0.07759352,0,0,0.07759352,-10.011382,0.60636917)"
       gradientUnits="userSpaceOnUse"
       y2="32.003132"
       x2="437.95627"
       y1="184.69566"
       x1="132.25922"
       id="linearGradient4303"
       xlink:href="#linearGradient4297" />
    <linearGradient
       gradientTransform="matrix(0.07759352,0,0,0.07759352,-10.213173,1.1252569)"
       gradientUnits="userSpaceOnUse"
       y2="178.00841"
       x2="481.052"
       y1="178.00841"
       x1="168.66766"
       id="linearGradient4426"
       xlink:href="#linearGradient4420" />
    <linearGradient
       gradientTransform="matrix(0.0946475,-0.10944323,0.11194091,0.09230213,-21.93165,25.97848)"
       gradientUnits="userSpaceOnUse"
       y2="112.64784"
       x2="224.17287"
       y1="71.002716"
       x1="203.61671"
       id="linearGradient4466"
       xlink:href="#linearGradient4460" />
  </defs>
  <g
     id="g4593">
    <path
       id="path4248"
       d="M 29.736614,14.937555 C 30.099624,24.498144 19.654592,32.182395 10.637059,29.02186 1.4023108,26.541504 -2.8684385,14.296806 2.8261128,6.6131618 7.9248852,-1.4793328 20.883812,-1.9382467 26.542252,5.7733032 28.60018,8.3532733 29.74465,11.637826 29.736614,14.937555 Z"
       style="opacity:1;fill:url(#linearGradient4303);fill-opacity:1;stroke:none;stroke-width:10;stroke-miterlimit:4;stroke-dasharray:none;stroke-dashoffset:0;stroke-opacity:1" />
    <path
       id="path4248-8"
       d="M 27.113345,14.937555 C 27.402493,22.690534 19.043813,28.977942 11.67795,26.594619 4.1500469,24.748833 0.36714258,14.995775 4.6888016,8.5588116 8.5237364,1.8187993 18.938604,0.85199736 23.948657,6.7709385 c 1.769749,1.9315196 2.880696,4.4507445 3.114029,7.0596525"
       style="opacity:0.919;fill:url(#linearGradient4426);fill-opacity:1;fill-rule:nonzero;stroke:none;stroke-width:10;stroke-miterlimit:4;stroke-dasharray:none;stroke-dashoffset:0;stroke-opacity:1" />
    <path
       id="path4428"
       d="M 25.256303,14.937555 C 25.501145,21.502556 18.423262,26.826558 12.186056,24.80844 5.8116403,23.245493 2.6083622,14.986897 6.2677976,9.5362455 9.5150883,3.8289832 18.334093,3.0102804 22.576492,8.0222454 c 1.49858,1.6355441 2.43931,3.7687406 2.636907,5.9778836"
       style="opacity:1;fill:#f02828;fill-opacity:1;fill-rule:nonzero;stroke:none;stroke-width:10;stroke-miterlimit:4;stroke-dasharray:none;stroke-dashoffset:0;stroke-opacity:1" />
    <path
       id="path4430"
       d="m 13.625943,7.0278386 c 1.323384,2.2547257 -1.077458,4.8190204 -2.599172,6.3730674 -0.992217,1.29089 -4.6822741,2.921721 -4.5769917,0.08218 C 6.9519267,10.700165 9.0796242,8.3267922 11.553464,7.0650502 12.136966,6.8216127 12.846491,6.6117955 13.45038,6.9110313"
       style="opacity:1;fill:url(#linearGradient4466);fill-opacity:1;fill-rule:nonzero;stroke:none;stroke-width:10;stroke-miterlimit:4;stroke-dasharray:none;stroke-dashoffset:0;stroke-opacity:1" />
  </g>
</svg>
