<svg xmlns="http://www.w3.org/2000/svg" xmlns:xlink="http://www.w3.org/1999/xlink" viewBox="0 0 853.69796 854.92361" height="854.924" width="853.698"><defs><linearGradient id="e"><stop offset="0" stop-color="#d0cdcb"/><stop offset="1" stop-color="#d0cdcb" stop-opacity="0"/></linearGradient><linearGradient id="d"><stop offset="0" stop-color="#fff"/><stop offset="1" stop-color="#fff" stop-opacity="0"/></linearGradient><filter height="1.024" y="-.012" width="1.024" x="-.012" id="i" color-interpolation-filters="sRGB"><feGaussianBlur stdDeviation="3.787"/></filter><filter height="1.041" y="-.021" width="1.057" x="-.028" id="k" color-interpolation-filters="sRGB"><feGaussianBlur stdDeviation="5.719"/></filter><filter height="1.041" y="-.021" width="1.057" x="-.028" id="j" color-interpolation-filters="sRGB"><feGaussianBlur stdDeviation="5.719"/></filter><filter height="1.168" y="-.084" width="1.168" x="-.084" id="h" color-interpolation-filters="sRGB"><feGaussianBlur stdDeviation="21.129"/></filter><linearGradient id="a"><stop offset="0" stop-color="#1e1e1e"/><stop offset="1" stop-color="#1e1e1e" stop-opacity="0"/></linearGradient><linearGradient id="b"><stop offset="0"/><stop offset="1" stop-color="#1e1e1e" stop-opacity="0"/></linearGradient><linearGradient id="c"><stop offset="0" stop-color="#ffe1e1"/><stop offset="1" stop-color="#ffe1e1" stop-opacity="0"/></linearGradient><linearGradient xlink:href="#e" id="l" x1="374.975" y1="232.477" x2="373.894" y2="273.844" gradientUnits="userSpaceOnUse" gradientTransform="matrix(1.44806 0 0 2.47424 -744.587 -1231.848)"/><linearGradient id="f"><stop offset="0" stop-color="#dbdbd9"/><stop offset="1" stop-color="#dbdbd9" stop-opacity="0"/></linearGradient><linearGradient id="g"><stop offset="0" stop-color="#fafafa"/><stop offset="1" stop-color="#fafafa" stop-opacity="0"/></linearGradient><filter id="m" x="-.097" width="1.194" y="-.095" height="1.19" color-interpolation-filters="sRGB"><feGaussianBlur stdDeviation="1.087"/></filter><filter id="n" x="-.024" width="1.048" y="-.024" height="1.048" color-interpolation-filters="sRGB"><feGaussianBlur stdDeviation=".323"/></filter><radialGradient xlink:href="#g" id="o" cx="130.359" cy="939.615" fx="130.359" fy="939.615" r="10.534" gradientUnits="userSpaceOnUse" gradientTransform="matrix(.71408 .014 -.0143 .7285 45.58 249.666)"/><filter id="p" x="-.108" width="1.216" y="-.108" height="1.216" color-interpolation-filters="sRGB"><feGaussianBlur stdDeviation=".887"/></filter><filter height="1.19" y="-.095" width="1.194" x="-.097" id="q" color-interpolation-filters="sRGB"><feGaussianBlur stdDeviation="1.087"/></filter><filter height="1.048" y="-.024" width="1.048" x="-.024" id="r" color-interpolation-filters="sRGB"><feGaussianBlur stdDeviation=".323"/></filter><radialGradient gradientTransform="matrix(.71408 .014 -.0143 .7285 45.58 249.666)" gradientUnits="userSpaceOnUse" r="10.534" fy="939.615" fx="130.359" cy="939.615" cx="130.359" id="s" xlink:href="#g"/><filter height="1.216" y="-.108" width="1.216" x="-.108" id="t" color-interpolation-filters="sRGB"><feGaussianBlur stdDeviation=".887"/></filter></defs><circle transform="matrix(1.14 0 0 1.14 -120.075 -123.012)" r="301.848" cy="498.971" cx="498.333" opacity=".618" fill="#a3a5a4" filter="url(#h)"/><path d="M780.482 408.792a378.672 378.672 0 0 1-378.526 378.67A378.672 378.672 0 0 1 23.14 409.083 378.672 378.672 0 0 1 401.373 30.12 378.672 378.672 0 0 1 780.48 408.21" transform="matrix(.90873 0 0 .90873 13.97 9.15)" stroke="#3c3c3c" stroke-width="10" filter="url(#i)"/><path d="M393.81 76.26v143.376a161.73 161.73 0 0 1 146.225 146.29h143.422A305.105 305.105 0 0 0 393.81 76.26z" fill="#ff0a0a" stroke="#790000" stroke-width="7.352"/><path d="M540.1 395.332a161.73 161.73 0 0 1-146.29 146.224v143.657a305.105 305.105 0 0 0 289.744-289.88H540.1z" fill="#0a0aff" stroke="#0a0a62" stroke-width="7.352"/><path d="M74.746 395.332a305.105 305.105 0 0 0 289.657 289.88v-143.59a161.73 161.73 0 0 1-146.225-146.29H74.746z" fill="#ffff0a" stroke="#767600" stroke-width="7.352"/><path d="M364.403 76.278A305.105 305.105 0 0 0 74.74 365.925H218.11a161.73 161.73 0 0 1 146.29-146.266V76.277z" fill="#0aff0a" stroke="#007900" stroke-width="7.352"/><path d="M378.175 36.708A345.902 341.968 0 0 0 32.273 378.676a345.902 341.968 0 0 0 224.9 319.917A345.902 341.968 0 0 1 47.313 384.26a345.902 341.968 0 0 1 345.9-341.97 345.902 341.968 0 0 1 121 22.052 345.902 341.968 0 0 0-136.038-27.634z" fill="#fff" fill-opacity=".881" filter="url(#j)"/><path transform="rotate(180 380.978 382.837)" d="M383.87 41.454A345.902 341.968 0 0 0 37.968 383.422a345.902 341.968 0 0 0 224.9 319.917A345.902 341.968 0 0 1 53.01 389.004 345.902 341.968 0 0 1 398.91 47.037a345.902 341.968 0 0 1 121 22.05 345.902 341.968 0 0 0-136.04-27.633z" fill="#fff" fill-opacity=".724" filter="url(#k)"/><path fill="#6a9f68" stroke="#3c463c" stroke-width="6.659" d="M253.637 323.662h252.055v114.095H253.637z"/><circle r="155.5" cx="-194.963" cy="-501.373" transform="rotate(156.285)" opacity=".47" fill="url(#l)"/><g transform="translate(420.343 451.957)"><path d="M61.73 933.683l5.148 5.8c5.83 6.572 7.01 14.827 2.648 18.51l-.736.62c-4.363 3.682-12.57 1.356-18.4-5.215l-5.148-5.8c-.085-10.795 13.137-16.92 16.49-13.915z" transform="matrix(1.32746 0 0 1.26824 -50.628 -1171.215)" fill-opacity=".706" filter="url(#m)"/><circle transform="rotate(180 -.722 -.448)" cx="-22.952" cy="-22.488" r="16.159" fill="#b4b5b6" filter="url(#n)"/><circle transform="scale(-1)" cx="-21.507" cy="-21.591" r="15.118" fill="#0a0a0a"/><circle transform="rotate(179.93 123.865 855.71) scale(1.80533)" cx="125.241" cy="936.002" r="9.853" opacity=".625" fill="url(#o)" filter="url(#p)"/></g><g transform="translate(294.92 450.903)"><path transform="matrix(1.0307 0 0 1.02835 -36.455 -948.98)" d="M61.73 933.683l5.148 5.8c5.83 6.572 7.01 14.827 2.648 18.51l-.736.62c-4.363 3.682-12.57 1.356-18.4-5.215l-5.148-5.8c-.085-10.795 13.137-16.92 16.49-13.915z" fill-opacity=".706" filter="url(#q)"/><g transform="matrix(-.90305 0 0 -.90305 2.225 2.18)"><circle cx="-22.952" cy="-22.488" r="16.159" fill="#b4b5b6" filter="url(#r)"/><circle cx="-22.952" cy="-22.488" r="15.118" fill="#0a0a0a"/></g><circle r="9.853" cy="936.002" cx="125.241" transform="rotate(179.93 124.588 856.16) scale(1.80533)" opacity=".625" fill="url(#s)" filter="url(#t)"/></g></svg>